<?xml version="1.0" encoding="utf-8" ?>
<!DOCTYPE svg PUBLIC "-//W3C//DTD SVG 1.1//EN" "http://www.w3.org/Graphics/SVG/1.1/DTD/svg11.dtd">
<svg height="576" version="1.1" width="774" xmlns="http://www.w3.org/2000/svg">
<line fill="#000000" stroke="#000000" stroke-width="1" x1="89" x2="89" y1="63" y2="68"/>
<line fill="#000000" stroke="#000000" stroke-width="1" x1="89" x2="89" y1="73" y2="78"/>
<line fill="#000000" stroke="#000000" stroke-width="1" x1="89" x2="89" y1="83" y2="88"/>
<line fill="#000000" stroke="#000000" stroke-width="1" x1="89" x2="89" y1="93" y2="98"/>
<line fill="#000000" stroke="#000000" stroke-width="1" x1="89" x2="89" y1="103" y2="108"/>
<line fill="#000000" stroke="#000000" stroke-width="1" x1="89" x2="89" y1="113" y2="118"/>
<line fill="#000000" stroke="#000000" stroke-width="1" x1="89" x2="89" y1="123" y2="128"/>
<line fill="#000000" stroke="#000000" stroke-width="1" x1="89" x2="89" y1="133" y2="138"/>
<line fill="#000000" stroke="#000000" stroke-width="1" x1="89" x2="89" y1="143" y2="148"/>
<line fill="#000000" stroke="#000000" stroke-width="1" x1="89" x2="89" y1="153" y2="158"/>
<line fill="#000000" stroke="#000000" stroke-width="1" x1="89" x2="89" y1="163" y2="168"/>
<line fill="#000000" stroke="#000000" stroke-width="1" x1="89" x2="89" y1="173" y2="178"/>
<line fill="#000000" stroke="#000000" stroke-width="1" x1="89" x2="89" y1="183" y2="188"/>
<line fill="#000000" stroke="#000000" stroke-width="1" x1="89" x2="89" y1="193" y2="198"/>
<line fill="#000000" stroke="#000000" stroke-width="1" x1="89" x2="89" y1="203" y2="208"/>
<line fill="#000000" stroke="#000000" stroke-width="1" x1="89" x2="89" y1="213" y2="218"/>
<line fill="#000000" stroke="#000000" stroke-width="1" x1="89" x2="89" y1="223" y2="228"/>
<line fill="#000000" stroke="#000000" stroke-width="1" x1="89" x2="89" y1="233" y2="238"/>
<line fill="#000000" stroke="#000000" stroke-width="1" x1="89" x2="89" y1="243" y2="248"/>
<line fill="#000000" stroke="#000000" stroke-width="1" x1="89" x2="89" y1="253" y2="258"/>
<line fill="#000000" stroke="#000000" stroke-width="1" x1="89" x2="89" y1="263" y2="268"/>
<line fill="#000000" stroke="#000000" stroke-width="1" x1="89" x2="89" y1="273" y2="278"/>
<line fill="#000000" stroke="#000000" stroke-width="1" x1="89" x2="89" y1="283" y2="288"/>
<line fill="#000000" stroke="#000000" stroke-width="1" x1="89" x2="89" y1="293" y2="298"/>
<line fill="#000000" stroke="#000000" stroke-width="1" x1="89" x2="89" y1="303" y2="308"/>
<line fill="#000000" stroke="#000000" stroke-width="1" x1="89" x2="89" y1="313" y2="318"/>
<line fill="#000000" stroke="#000000" stroke-width="1" x1="89" x2="89" y1="323" y2="328"/>
<line fill="#000000" stroke="#000000" stroke-width="1" x1="89" x2="89" y1="333" y2="338"/>
<line fill="#000000" stroke="#000000" stroke-width="1" x1="89" x2="89" y1="343" y2="348"/>
<line fill="#000000" stroke="#000000" stroke-width="1" x1="89" x2="89" y1="353" y2="358"/>
<line fill="#000000" stroke="#000000" stroke-width="1" x1="89" x2="89" y1="363" y2="368"/>
<line fill="#000000" stroke="#000000" stroke-width="1" x1="89" x2="89" y1="373" y2="378"/>
<line fill="#000000" stroke="#000000" stroke-width="1" x1="89" x2="89" y1="383" y2="388"/>
<line fill="#000000" stroke="#000000" stroke-width="1" x1="89" x2="89" y1="393" y2="398"/>
<line fill="#000000" stroke="#000000" stroke-width="1" x1="89" x2="89" y1="403" y2="408"/>
<line fill="#000000" stroke="#000000" stroke-width="1" x1="89" x2="89" y1="413" y2="418"/>
<line fill="#000000" stroke="#000000" stroke-width="1" x1="89" x2="89" y1="423" y2="428"/>
<line fill="#000000" stroke="#000000" stroke-width="1" x1="89" x2="89" y1="433" y2="438"/>
<line fill="#000000" stroke="#000000" stroke-width="1" x1="89" x2="89" y1="443" y2="448"/>
<line fill="#000000" stroke="#000000" stroke-width="1" x1="89" x2="89" y1="453" y2="458"/>
<line fill="#000000" stroke="#000000" stroke-width="1" x1="89" x2="89" y1="463" y2="468"/>
<line fill="#000000" stroke="#000000" stroke-width="1" x1="89" x2="89" y1="473" y2="478"/>
<line fill="#000000" stroke="#000000" stroke-width="1" x1="89" x2="89" y1="483" y2="488"/>
<line fill="#000000" stroke="#000000" stroke-width="1" x1="89" x2="89" y1="493" y2="498"/>
<line fill="#000000" stroke="#000000" stroke-width="1" x1="89" x2="89" y1="503" y2="508"/>
<line fill="#000000" stroke="#000000" stroke-width="1" x1="89" x2="89" y1="513" y2="518"/>
<line fill="#000000" stroke="#000000" stroke-width="1" x1="89" x2="89" y1="523" y2="528"/>
<line fill="#000000" stroke="#000000" stroke-width="1" x1="89" x2="89" y1="533" y2="538"/>
<line fill="#000000" stroke="#000000" stroke-width="1" x1="89" x2="89" y1="543" y2="548"/>
<line fill="#000000" stroke="#000000" stroke-width="1" x1="89" x2="89" y1="553" y2="558"/>
<rect fill="#ffffff" height="498" stroke="#ffffff" stroke-width="1" width="20" x="79" y="63"/>
<rect fill="none" height="498" stroke="#000000" stroke-width="1" width="20" x="79" y="63"/>
<rect fill="#ffffff" height="50" stroke="#ffffff" stroke-width="1" width="150" x="14" y="14"/>
<rect fill="none" height="50" stroke="#000000" stroke-width="1" width="150" x="14" y="14"/>
<text font-family="Dialog" font-size="12" x="61" y="28">
:Fragment</text>
<line fill="#000000" stroke="#000000" stroke-width="1" x1="393" x2="393" y1="63" y2="68"/>
<line fill="#000000" stroke="#000000" stroke-width="1" x1="393" x2="393" y1="73" y2="78"/>
<line fill="#000000" stroke="#000000" stroke-width="1" x1="393" x2="393" y1="83" y2="88"/>
<line fill="#000000" stroke="#000000" stroke-width="1" x1="393" x2="393" y1="93" y2="98"/>
<line fill="#000000" stroke="#000000" stroke-width="1" x1="393" x2="393" y1="103" y2="108"/>
<line fill="#000000" stroke="#000000" stroke-width="1" x1="393" x2="393" y1="113" y2="118"/>
<line fill="#000000" stroke="#000000" stroke-width="1" x1="393" x2="393" y1="123" y2="128"/>
<line fill="#000000" stroke="#000000" stroke-width="1" x1="393" x2="393" y1="133" y2="138"/>
<line fill="#000000" stroke="#000000" stroke-width="1" x1="393" x2="393" y1="143" y2="148"/>
<line fill="#000000" stroke="#000000" stroke-width="1" x1="393" x2="393" y1="153" y2="158"/>
<line fill="#000000" stroke="#000000" stroke-width="1" x1="393" x2="393" y1="163" y2="168"/>
<line fill="#000000" stroke="#000000" stroke-width="1" x1="393" x2="393" y1="173" y2="178"/>
<line fill="#000000" stroke="#000000" stroke-width="1" x1="393" x2="393" y1="183" y2="188"/>
<line fill="#000000" stroke="#000000" stroke-width="1" x1="393" x2="393" y1="193" y2="198"/>
<line fill="#000000" stroke="#000000" stroke-width="1" x1="393" x2="393" y1="203" y2="208"/>
<line fill="#000000" stroke="#000000" stroke-width="1" x1="393" x2="393" y1="213" y2="218"/>
<line fill="#000000" stroke="#000000" stroke-width="1" x1="393" x2="393" y1="223" y2="228"/>
<line fill="#000000" stroke="#000000" stroke-width="1" x1="393" x2="393" y1="233" y2="238"/>
<line fill="#000000" stroke="#000000" stroke-width="1" x1="393" x2="393" y1="243" y2="248"/>
<line fill="#000000" stroke="#000000" stroke-width="1" x1="393" x2="393" y1="253" y2="258"/>
<line fill="#000000" stroke="#000000" stroke-width="1" x1="393" x2="393" y1="263" y2="268"/>
<line fill="#000000" stroke="#000000" stroke-width="1" x1="393" x2="393" y1="273" y2="278"/>
<line fill="#000000" stroke="#000000" stroke-width="1" x1="393" x2="393" y1="283" y2="288"/>
<line fill="#000000" stroke="#000000" stroke-width="1" x1="393" x2="393" y1="293" y2="298"/>
<line fill="#000000" stroke="#000000" stroke-width="1" x1="393" x2="393" y1="303" y2="308"/>
<line fill="#000000" stroke="#000000" stroke-width="1" x1="393" x2="393" y1="313" y2="318"/>
<line fill="#000000" stroke="#000000" stroke-width="1" x1="393" x2="393" y1="323" y2="328"/>
<line fill="#000000" stroke="#000000" stroke-width="1" x1="393" x2="393" y1="333" y2="338"/>
<line fill="#000000" stroke="#000000" stroke-width="1" x1="393" x2="393" y1="343" y2="348"/>
<line fill="#000000" stroke="#000000" stroke-width="1" x1="393" x2="393" y1="353" y2="358"/>
<line fill="#000000" stroke="#000000" stroke-width="1" x1="393" x2="393" y1="363" y2="368"/>
<line fill="#000000" stroke="#000000" stroke-width="1" x1="393" x2="393" y1="373" y2="378"/>
<line fill="#000000" stroke="#000000" stroke-width="1" x1="393" x2="393" y1="383" y2="388"/>
<line fill="#000000" stroke="#000000" stroke-width="1" x1="393" x2="393" y1="393" y2="398"/>
<line fill="#000000" stroke="#000000" stroke-width="1" x1="393" x2="393" y1="403" y2="408"/>
<line fill="#000000" stroke="#000000" stroke-width="1" x1="393" x2="393" y1="413" y2="418"/>
<line fill="#000000" stroke="#000000" stroke-width="1" x1="393" x2="393" y1="423" y2="428"/>
<line fill="#000000" stroke="#000000" stroke-width="1" x1="393" x2="393" y1="433" y2="438"/>
<line fill="#000000" stroke="#000000" stroke-width="1" x1="393" x2="393" y1="443" y2="448"/>
<line fill="#000000" stroke="#000000" stroke-width="1" x1="393" x2="393" y1="453" y2="458"/>
<line fill="#000000" stroke="#000000" stroke-width="1" x1="393" x2="393" y1="463" y2="468"/>
<line fill="#000000" stroke="#000000" stroke-width="1" x1="393" x2="393" y1="473" y2="478"/>
<line fill="#000000" stroke="#000000" stroke-width="1" x1="393" x2="393" y1="483" y2="488"/>
<line fill="#000000" stroke="#000000" stroke-width="1" x1="393" x2="393" y1="493" y2="498"/>
<line fill="#000000" stroke="#000000" stroke-width="1" x1="393" x2="393" y1="503" y2="508"/>
<line fill="#000000" stroke="#000000" stroke-width="1" x1="393" x2="393" y1="513" y2="518"/>
<line fill="#000000" stroke="#000000" stroke-width="1" x1="393" x2="393" y1="523" y2="528"/>
<line fill="#000000" stroke="#000000" stroke-width="1" x1="393" x2="393" y1="533" y2="538"/>
<line fill="#000000" stroke="#000000" stroke-width="1" x1="393" x2="393" y1="543" y2="548"/>
<line fill="#000000" stroke="#000000" stroke-width="1" x1="393" x2="393" y1="553" y2="558"/>
<rect fill="#ffffff" height="90" stroke="#ffffff" stroke-width="1" width="20" x="383" y="157"/>
<rect fill="none" height="90" stroke="#000000" stroke-width="1" width="20" x="383" y="157"/>
<rect fill="#ffffff" height="50" stroke="#ffffff" stroke-width="1" width="150" x="318" y="14"/>
<rect fill="none" height="50" stroke="#000000" stroke-width="1" width="150" x="318" y="14"/>
<text font-family="Dialog" font-size="12" x="328" y="28">
:FragmentHostCallback</text>
<line fill="#000000" stroke="#000000" stroke-width="1" x1="685" x2="685" y1="63" y2="68"/>
<line fill="#000000" stroke="#000000" stroke-width="1" x1="685" x2="685" y1="73" y2="78"/>
<line fill="#000000" stroke="#000000" stroke-width="1" x1="685" x2="685" y1="83" y2="88"/>
<line fill="#000000" stroke="#000000" stroke-width="1" x1="685" x2="685" y1="93" y2="98"/>
<line fill="#000000" stroke="#000000" stroke-width="1" x1="685" x2="685" y1="103" y2="108"/>
<line fill="#000000" stroke="#000000" stroke-width="1" x1="685" x2="685" y1="113" y2="118"/>
<line fill="#000000" stroke="#000000" stroke-width="1" x1="685" x2="685" y1="123" y2="128"/>
<line fill="#000000" stroke="#000000" stroke-width="1" x1="685" x2="685" y1="133" y2="138"/>
<line fill="#000000" stroke="#000000" stroke-width="1" x1="685" x2="685" y1="143" y2="148"/>
<line fill="#000000" stroke="#000000" stroke-width="1" x1="685" x2="685" y1="153" y2="158"/>
<line fill="#000000" stroke="#000000" stroke-width="1" x1="685" x2="685" y1="163" y2="168"/>
<line fill="#000000" stroke="#000000" stroke-width="1" x1="685" x2="685" y1="173" y2="178"/>
<line fill="#000000" stroke="#000000" stroke-width="1" x1="685" x2="685" y1="183" y2="188"/>
<line fill="#000000" stroke="#000000" stroke-width="1" x1="685" x2="685" y1="193" y2="198"/>
<line fill="#000000" stroke="#000000" stroke-width="1" x1="685" x2="685" y1="203" y2="208"/>
<line fill="#000000" stroke="#000000" stroke-width="1" x1="685" x2="685" y1="213" y2="218"/>
<line fill="#000000" stroke="#000000" stroke-width="1" x1="685" x2="685" y1="223" y2="228"/>
<line fill="#000000" stroke="#000000" stroke-width="1" x1="685" x2="685" y1="233" y2="238"/>
<line fill="#000000" stroke="#000000" stroke-width="1" x1="685" x2="685" y1="243" y2="248"/>
<line fill="#000000" stroke="#000000" stroke-width="1" x1="685" x2="685" y1="253" y2="258"/>
<line fill="#000000" stroke="#000000" stroke-width="1" x1="685" x2="685" y1="263" y2="268"/>
<line fill="#000000" stroke="#000000" stroke-width="1" x1="685" x2="685" y1="273" y2="278"/>
<line fill="#000000" stroke="#000000" stroke-width="1" x1="685" x2="685" y1="283" y2="288"/>
<line fill="#000000" stroke="#000000" stroke-width="1" x1="685" x2="685" y1="293" y2="298"/>
<line fill="#000000" stroke="#000000" stroke-width="1" x1="685" x2="685" y1="303" y2="308"/>
<line fill="#000000" stroke="#000000" stroke-width="1" x1="685" x2="685" y1="313" y2="318"/>
<line fill="#000000" stroke="#000000" stroke-width="1" x1="685" x2="685" y1="323" y2="328"/>
<line fill="#000000" stroke="#000000" stroke-width="1" x1="685" x2="685" y1="333" y2="338"/>
<line fill="#000000" stroke="#000000" stroke-width="1" x1="685" x2="685" y1="343" y2="348"/>
<line fill="#000000" stroke="#000000" stroke-width="1" x1="685" x2="685" y1="353" y2="358"/>
<line fill="#000000" stroke="#000000" stroke-width="1" x1="685" x2="685" y1="363" y2="368"/>
<line fill="#000000" stroke="#000000" stroke-width="1" x1="685" x2="685" y1="373" y2="378"/>
<line fill="#000000" stroke="#000000" stroke-width="1" x1="685" x2="685" y1="383" y2="388"/>
<line fill="#000000" stroke="#000000" stroke-width="1" x1="685" x2="685" y1="393" y2="398"/>
<line fill="#000000" stroke="#000000" stroke-width="1" x1="685" x2="685" y1="403" y2="408"/>
<line fill="#000000" stroke="#000000" stroke-width="1" x1="685" x2="685" y1="413" y2="418"/>
<line fill="#000000" stroke="#000000" stroke-width="1" x1="685" x2="685" y1="423" y2="428"/>
<line fill="#000000" stroke="#000000" stroke-width="1" x1="685" x2="685" y1="433" y2="438"/>
<line fill="#000000" stroke="#000000" stroke-width="1" x1="685" x2="685" y1="443" y2="448"/>
<line fill="#000000" stroke="#000000" stroke-width="1" x1="685" x2="685" y1="453" y2="458"/>
<line fill="#000000" stroke="#000000" stroke-width="1" x1="685" x2="685" y1="463" y2="468"/>
<line fill="#000000" stroke="#000000" stroke-width="1" x1="685" x2="685" y1="473" y2="478"/>
<line fill="#000000" stroke="#000000" stroke-width="1" x1="685" x2="685" y1="483" y2="488"/>
<line fill="#000000" stroke="#000000" stroke-width="1" x1="685" x2="685" y1="493" y2="498"/>
<line fill="#000000" stroke="#000000" stroke-width="1" x1="685" x2="685" y1="503" y2="508"/>
<line fill="#000000" stroke="#000000" stroke-width="1" x1="685" x2="685" y1="513" y2="518"/>
<line fill="#000000" stroke="#000000" stroke-width="1" x1="685" x2="685" y1="523" y2="528"/>
<line fill="#000000" stroke="#000000" stroke-width="1" x1="685" x2="685" y1="533" y2="538"/>
<line fill="#000000" stroke="#000000" stroke-width="1" x1="685" x2="685" y1="543" y2="548"/>
<line fill="#000000" stroke="#000000" stroke-width="1" x1="685" x2="685" y1="553" y2="558"/>
<rect fill="#ffffff" height="50" stroke="#ffffff" stroke-width="1" width="20" x="675" y="177"/>
<rect fill="none" height="50" stroke="#000000" stroke-width="1" width="20" x="675" y="177"/>
<rect fill="#ffffff" height="50" stroke="#ffffff" stroke-width="1" width="150" x="610" y="14"/>
<rect fill="none" height="50" stroke="#000000" stroke-width="1" width="150" x="610" y="14"/>
<text font-family="Dialog" font-size="12" x="639" y="28">
:FragmentActivity</text>
<polyline fill="none" points="99,157 383,157" stroke="#000000" stroke-width="1"/>
<polygon fill="#000000" points="383,157 371,164 371,150" stroke="#000000" stroke-width="1"/>
<polygon fill="none" points="383,157 371,164 371,150" stroke="#000000" stroke-width="1"/>
<text font-family="Dialog" font-size="12" x="197" y="149">
onStartActivityFromFragment</text>
<polyline fill="none" points="383,247 99,247" stroke="#000000" stroke-width="1"/>
<line fill="#000000" stroke="#000000" stroke-width="1" x1="111" x2="99" y1="240" y2="247"/>
<line fill="#000000" stroke="#000000" stroke-width="1" x1="111" x2="99" y1="254" y2="247"/>
<polyline fill="none" points="403,177 675,177" stroke="#000000" stroke-width="1"/>
<polygon fill="#000000" points="675,177 663,184 663,170" stroke="#000000" stroke-width="1"/>
<polygon fill="none" points="675,177 663,184 663,170" stroke="#000000" stroke-width="1"/>
<text font-family="Dialog" font-size="12" x="495" y="169">
startActivityFromFragment</text>
<polyline fill="none" points="675,227 403,227" stroke="#000000" stroke-width="1"/>
<line fill="#000000" stroke="#000000" stroke-width="1" x1="415" x2="403" y1="220" y2="227"/>
<line fill="#000000" stroke="#000000" stroke-width="1" x1="415" x2="403" y1="234" y2="227"/>
</svg>
