<?xml version="1.0" encoding="utf-8" ?>
<!DOCTYPE svg PUBLIC "-//W3C//DTD SVG 1.1//EN" "http://www.w3.org/Graphics/SVG/1.1/DTD/svg11.dtd">
<svg height="576" version="1.1" width="918" xmlns="http://www.w3.org/2000/svg">
<line fill="#000000" stroke="#000000" stroke-width="1" x1="89" x2="89" y1="63" y2="68"/>
<line fill="#000000" stroke="#000000" stroke-width="1" x1="89" x2="89" y1="73" y2="78"/>
<line fill="#000000" stroke="#000000" stroke-width="1" x1="89" x2="89" y1="83" y2="88"/>
<line fill="#000000" stroke="#000000" stroke-width="1" x1="89" x2="89" y1="93" y2="98"/>
<line fill="#000000" stroke="#000000" stroke-width="1" x1="89" x2="89" y1="103" y2="108"/>
<line fill="#000000" stroke="#000000" stroke-width="1" x1="89" x2="89" y1="113" y2="118"/>
<line fill="#000000" stroke="#000000" stroke-width="1" x1="89" x2="89" y1="123" y2="128"/>
<line fill="#000000" stroke="#000000" stroke-width="1" x1="89" x2="89" y1="133" y2="138"/>
<line fill="#000000" stroke="#000000" stroke-width="1" x1="89" x2="89" y1="143" y2="148"/>
<line fill="#000000" stroke="#000000" stroke-width="1" x1="89" x2="89" y1="153" y2="158"/>
<line fill="#000000" stroke="#000000" stroke-width="1" x1="89" x2="89" y1="163" y2="168"/>
<line fill="#000000" stroke="#000000" stroke-width="1" x1="89" x2="89" y1="173" y2="178"/>
<line fill="#000000" stroke="#000000" stroke-width="1" x1="89" x2="89" y1="183" y2="188"/>
<line fill="#000000" stroke="#000000" stroke-width="1" x1="89" x2="89" y1="193" y2="198"/>
<line fill="#000000" stroke="#000000" stroke-width="1" x1="89" x2="89" y1="203" y2="208"/>
<line fill="#000000" stroke="#000000" stroke-width="1" x1="89" x2="89" y1="213" y2="218"/>
<line fill="#000000" stroke="#000000" stroke-width="1" x1="89" x2="89" y1="223" y2="228"/>
<line fill="#000000" stroke="#000000" stroke-width="1" x1="89" x2="89" y1="233" y2="238"/>
<line fill="#000000" stroke="#000000" stroke-width="1" x1="89" x2="89" y1="243" y2="248"/>
<line fill="#000000" stroke="#000000" stroke-width="1" x1="89" x2="89" y1="253" y2="258"/>
<line fill="#000000" stroke="#000000" stroke-width="1" x1="89" x2="89" y1="263" y2="268"/>
<line fill="#000000" stroke="#000000" stroke-width="1" x1="89" x2="89" y1="273" y2="278"/>
<line fill="#000000" stroke="#000000" stroke-width="1" x1="89" x2="89" y1="283" y2="288"/>
<line fill="#000000" stroke="#000000" stroke-width="1" x1="89" x2="89" y1="293" y2="298"/>
<line fill="#000000" stroke="#000000" stroke-width="1" x1="89" x2="89" y1="303" y2="308"/>
<line fill="#000000" stroke="#000000" stroke-width="1" x1="89" x2="89" y1="313" y2="318"/>
<line fill="#000000" stroke="#000000" stroke-width="1" x1="89" x2="89" y1="323" y2="328"/>
<line fill="#000000" stroke="#000000" stroke-width="1" x1="89" x2="89" y1="333" y2="338"/>
<line fill="#000000" stroke="#000000" stroke-width="1" x1="89" x2="89" y1="343" y2="348"/>
<line fill="#000000" stroke="#000000" stroke-width="1" x1="89" x2="89" y1="353" y2="358"/>
<line fill="#000000" stroke="#000000" stroke-width="1" x1="89" x2="89" y1="363" y2="368"/>
<line fill="#000000" stroke="#000000" stroke-width="1" x1="89" x2="89" y1="373" y2="378"/>
<line fill="#000000" stroke="#000000" stroke-width="1" x1="89" x2="89" y1="383" y2="388"/>
<line fill="#000000" stroke="#000000" stroke-width="1" x1="89" x2="89" y1="393" y2="398"/>
<line fill="#000000" stroke="#000000" stroke-width="1" x1="89" x2="89" y1="403" y2="408"/>
<line fill="#000000" stroke="#000000" stroke-width="1" x1="89" x2="89" y1="413" y2="418"/>
<line fill="#000000" stroke="#000000" stroke-width="1" x1="89" x2="89" y1="423" y2="428"/>
<line fill="#000000" stroke="#000000" stroke-width="1" x1="89" x2="89" y1="433" y2="438"/>
<line fill="#000000" stroke="#000000" stroke-width="1" x1="89" x2="89" y1="443" y2="448"/>
<line fill="#000000" stroke="#000000" stroke-width="1" x1="89" x2="89" y1="453" y2="458"/>
<line fill="#000000" stroke="#000000" stroke-width="1" x1="89" x2="89" y1="463" y2="468"/>
<line fill="#000000" stroke="#000000" stroke-width="1" x1="89" x2="89" y1="473" y2="478"/>
<line fill="#000000" stroke="#000000" stroke-width="1" x1="89" x2="89" y1="483" y2="488"/>
<line fill="#000000" stroke="#000000" stroke-width="1" x1="89" x2="89" y1="493" y2="498"/>
<line fill="#000000" stroke="#000000" stroke-width="1" x1="89" x2="89" y1="503" y2="508"/>
<line fill="#000000" stroke="#000000" stroke-width="1" x1="89" x2="89" y1="513" y2="518"/>
<line fill="#000000" stroke="#000000" stroke-width="1" x1="89" x2="89" y1="523" y2="528"/>
<line fill="#000000" stroke="#000000" stroke-width="1" x1="89" x2="89" y1="533" y2="538"/>
<line fill="#000000" stroke="#000000" stroke-width="1" x1="89" x2="89" y1="543" y2="548"/>
<line fill="#000000" stroke="#000000" stroke-width="1" x1="89" x2="89" y1="553" y2="558"/>
<rect fill="#ffffff" height="498" stroke="#ffffff" stroke-width="1" width="20" x="79" y="63"/>
<rect fill="none" height="498" stroke="#000000" stroke-width="1" width="20" x="79" y="63"/>
<rect fill="#ffffff" height="50" stroke="#ffffff" stroke-width="1" width="150" x="14" y="14"/>
<rect fill="none" height="50" stroke="#000000" stroke-width="1" width="150" x="14" y="14"/>
<text font-family="Dialog" font-size="12" x="43" y="28">
:FragmentActivity</text>
<line fill="#000000" stroke="#000000" stroke-width="1" x1="341" x2="341" y1="63" y2="68"/>
<line fill="#000000" stroke="#000000" stroke-width="1" x1="341" x2="341" y1="73" y2="78"/>
<line fill="#000000" stroke="#000000" stroke-width="1" x1="341" x2="341" y1="83" y2="88"/>
<line fill="#000000" stroke="#000000" stroke-width="1" x1="341" x2="341" y1="93" y2="98"/>
<line fill="#000000" stroke="#000000" stroke-width="1" x1="341" x2="341" y1="103" y2="108"/>
<line fill="#000000" stroke="#000000" stroke-width="1" x1="341" x2="341" y1="113" y2="118"/>
<line fill="#000000" stroke="#000000" stroke-width="1" x1="341" x2="341" y1="123" y2="128"/>
<line fill="#000000" stroke="#000000" stroke-width="1" x1="341" x2="341" y1="133" y2="138"/>
<line fill="#000000" stroke="#000000" stroke-width="1" x1="341" x2="341" y1="143" y2="148"/>
<line fill="#000000" stroke="#000000" stroke-width="1" x1="341" x2="341" y1="153" y2="158"/>
<line fill="#000000" stroke="#000000" stroke-width="1" x1="341" x2="341" y1="163" y2="168"/>
<line fill="#000000" stroke="#000000" stroke-width="1" x1="341" x2="341" y1="173" y2="178"/>
<line fill="#000000" stroke="#000000" stroke-width="1" x1="341" x2="341" y1="183" y2="188"/>
<line fill="#000000" stroke="#000000" stroke-width="1" x1="341" x2="341" y1="193" y2="198"/>
<line fill="#000000" stroke="#000000" stroke-width="1" x1="341" x2="341" y1="203" y2="208"/>
<line fill="#000000" stroke="#000000" stroke-width="1" x1="341" x2="341" y1="213" y2="218"/>
<line fill="#000000" stroke="#000000" stroke-width="1" x1="341" x2="341" y1="223" y2="228"/>
<line fill="#000000" stroke="#000000" stroke-width="1" x1="341" x2="341" y1="233" y2="238"/>
<line fill="#000000" stroke="#000000" stroke-width="1" x1="341" x2="341" y1="243" y2="248"/>
<line fill="#000000" stroke="#000000" stroke-width="1" x1="341" x2="341" y1="253" y2="258"/>
<line fill="#000000" stroke="#000000" stroke-width="1" x1="341" x2="341" y1="263" y2="268"/>
<line fill="#000000" stroke="#000000" stroke-width="1" x1="341" x2="341" y1="273" y2="278"/>
<line fill="#000000" stroke="#000000" stroke-width="1" x1="341" x2="341" y1="283" y2="288"/>
<line fill="#000000" stroke="#000000" stroke-width="1" x1="341" x2="341" y1="293" y2="298"/>
<line fill="#000000" stroke="#000000" stroke-width="1" x1="341" x2="341" y1="303" y2="308"/>
<line fill="#000000" stroke="#000000" stroke-width="1" x1="341" x2="341" y1="313" y2="318"/>
<line fill="#000000" stroke="#000000" stroke-width="1" x1="341" x2="341" y1="323" y2="328"/>
<line fill="#000000" stroke="#000000" stroke-width="1" x1="341" x2="341" y1="333" y2="338"/>
<line fill="#000000" stroke="#000000" stroke-width="1" x1="341" x2="341" y1="343" y2="348"/>
<line fill="#000000" stroke="#000000" stroke-width="1" x1="341" x2="341" y1="353" y2="358"/>
<line fill="#000000" stroke="#000000" stroke-width="1" x1="341" x2="341" y1="363" y2="368"/>
<line fill="#000000" stroke="#000000" stroke-width="1" x1="341" x2="341" y1="373" y2="378"/>
<line fill="#000000" stroke="#000000" stroke-width="1" x1="341" x2="341" y1="383" y2="388"/>
<line fill="#000000" stroke="#000000" stroke-width="1" x1="341" x2="341" y1="393" y2="398"/>
<line fill="#000000" stroke="#000000" stroke-width="1" x1="341" x2="341" y1="403" y2="408"/>
<line fill="#000000" stroke="#000000" stroke-width="1" x1="341" x2="341" y1="413" y2="418"/>
<line fill="#000000" stroke="#000000" stroke-width="1" x1="341" x2="341" y1="423" y2="428"/>
<line fill="#000000" stroke="#000000" stroke-width="1" x1="341" x2="341" y1="433" y2="438"/>
<line fill="#000000" stroke="#000000" stroke-width="1" x1="341" x2="341" y1="443" y2="448"/>
<line fill="#000000" stroke="#000000" stroke-width="1" x1="341" x2="341" y1="453" y2="458"/>
<line fill="#000000" stroke="#000000" stroke-width="1" x1="341" x2="341" y1="463" y2="468"/>
<line fill="#000000" stroke="#000000" stroke-width="1" x1="341" x2="341" y1="473" y2="478"/>
<line fill="#000000" stroke="#000000" stroke-width="1" x1="341" x2="341" y1="483" y2="488"/>
<line fill="#000000" stroke="#000000" stroke-width="1" x1="341" x2="341" y1="493" y2="498"/>
<line fill="#000000" stroke="#000000" stroke-width="1" x1="341" x2="341" y1="503" y2="508"/>
<line fill="#000000" stroke="#000000" stroke-width="1" x1="341" x2="341" y1="513" y2="518"/>
<line fill="#000000" stroke="#000000" stroke-width="1" x1="341" x2="341" y1="523" y2="528"/>
<line fill="#000000" stroke="#000000" stroke-width="1" x1="341" x2="341" y1="533" y2="538"/>
<line fill="#000000" stroke="#000000" stroke-width="1" x1="341" x2="341" y1="543" y2="548"/>
<line fill="#000000" stroke="#000000" stroke-width="1" x1="341" x2="341" y1="553" y2="558"/>
<rect fill="#ffffff" height="134" stroke="#ffffff" stroke-width="1" width="20" x="331" y="134"/>
<rect fill="none" height="134" stroke="#000000" stroke-width="1" width="20" x="331" y="134"/>
<rect fill="#ffffff" height="50" stroke="#ffffff" stroke-width="1" width="150" x="266" y="14"/>
<rect fill="none" height="50" stroke="#000000" stroke-width="1" width="150" x="266" y="14"/>
<text font-family="Dialog" font-size="12" x="286" y="28">
:FragmentController</text>
<polyline fill="none" points="99,134 331,134" stroke="#000000" stroke-width="1"/>
<polygon fill="#000000" points="331,134 319,141 319,127" stroke="#000000" stroke-width="1"/>
<polygon fill="none" points="331,134 319,141 319,127" stroke="#000000" stroke-width="1"/>
<text font-family="Dialog" font-size="12" x="168" y="126">
dispatchResume()</text>
<polyline fill="none" points="331,268 99,268" stroke="#000000" stroke-width="1"/>
<line fill="#000000" stroke="#000000" stroke-width="1" x1="111" x2="99" y1="261" y2="268"/>
<line fill="#000000" stroke="#000000" stroke-width="1" x1="111" x2="99" y1="275" y2="268"/>
<line fill="#000000" stroke="#000000" stroke-width="1" x1="589" x2="589" y1="63" y2="68"/>
<line fill="#000000" stroke="#000000" stroke-width="1" x1="589" x2="589" y1="73" y2="78"/>
<line fill="#000000" stroke="#000000" stroke-width="1" x1="589" x2="589" y1="83" y2="88"/>
<line fill="#000000" stroke="#000000" stroke-width="1" x1="589" x2="589" y1="93" y2="98"/>
<line fill="#000000" stroke="#000000" stroke-width="1" x1="589" x2="589" y1="103" y2="108"/>
<line fill="#000000" stroke="#000000" stroke-width="1" x1="589" x2="589" y1="113" y2="118"/>
<line fill="#000000" stroke="#000000" stroke-width="1" x1="589" x2="589" y1="123" y2="128"/>
<line fill="#000000" stroke="#000000" stroke-width="1" x1="589" x2="589" y1="133" y2="138"/>
<line fill="#000000" stroke="#000000" stroke-width="1" x1="589" x2="589" y1="143" y2="148"/>
<line fill="#000000" stroke="#000000" stroke-width="1" x1="589" x2="589" y1="153" y2="158"/>
<line fill="#000000" stroke="#000000" stroke-width="1" x1="589" x2="589" y1="163" y2="168"/>
<line fill="#000000" stroke="#000000" stroke-width="1" x1="589" x2="589" y1="173" y2="178"/>
<line fill="#000000" stroke="#000000" stroke-width="1" x1="589" x2="589" y1="183" y2="188"/>
<line fill="#000000" stroke="#000000" stroke-width="1" x1="589" x2="589" y1="193" y2="198"/>
<line fill="#000000" stroke="#000000" stroke-width="1" x1="589" x2="589" y1="203" y2="208"/>
<line fill="#000000" stroke="#000000" stroke-width="1" x1="589" x2="589" y1="213" y2="218"/>
<line fill="#000000" stroke="#000000" stroke-width="1" x1="589" x2="589" y1="223" y2="228"/>
<line fill="#000000" stroke="#000000" stroke-width="1" x1="589" x2="589" y1="233" y2="238"/>
<line fill="#000000" stroke="#000000" stroke-width="1" x1="589" x2="589" y1="243" y2="248"/>
<line fill="#000000" stroke="#000000" stroke-width="1" x1="589" x2="589" y1="253" y2="258"/>
<line fill="#000000" stroke="#000000" stroke-width="1" x1="589" x2="589" y1="263" y2="268"/>
<line fill="#000000" stroke="#000000" stroke-width="1" x1="589" x2="589" y1="273" y2="278"/>
<line fill="#000000" stroke="#000000" stroke-width="1" x1="589" x2="589" y1="283" y2="288"/>
<line fill="#000000" stroke="#000000" stroke-width="1" x1="589" x2="589" y1="293" y2="298"/>
<line fill="#000000" stroke="#000000" stroke-width="1" x1="589" x2="589" y1="303" y2="308"/>
<line fill="#000000" stroke="#000000" stroke-width="1" x1="589" x2="589" y1="313" y2="318"/>
<line fill="#000000" stroke="#000000" stroke-width="1" x1="589" x2="589" y1="323" y2="328"/>
<line fill="#000000" stroke="#000000" stroke-width="1" x1="589" x2="589" y1="333" y2="338"/>
<line fill="#000000" stroke="#000000" stroke-width="1" x1="589" x2="589" y1="343" y2="348"/>
<line fill="#000000" stroke="#000000" stroke-width="1" x1="589" x2="589" y1="353" y2="358"/>
<line fill="#000000" stroke="#000000" stroke-width="1" x1="589" x2="589" y1="363" y2="368"/>
<line fill="#000000" stroke="#000000" stroke-width="1" x1="589" x2="589" y1="373" y2="378"/>
<line fill="#000000" stroke="#000000" stroke-width="1" x1="589" x2="589" y1="383" y2="388"/>
<line fill="#000000" stroke="#000000" stroke-width="1" x1="589" x2="589" y1="393" y2="398"/>
<line fill="#000000" stroke="#000000" stroke-width="1" x1="589" x2="589" y1="403" y2="408"/>
<line fill="#000000" stroke="#000000" stroke-width="1" x1="589" x2="589" y1="413" y2="418"/>
<line fill="#000000" stroke="#000000" stroke-width="1" x1="589" x2="589" y1="423" y2="428"/>
<line fill="#000000" stroke="#000000" stroke-width="1" x1="589" x2="589" y1="433" y2="438"/>
<line fill="#000000" stroke="#000000" stroke-width="1" x1="589" x2="589" y1="443" y2="448"/>
<line fill="#000000" stroke="#000000" stroke-width="1" x1="589" x2="589" y1="453" y2="458"/>
<line fill="#000000" stroke="#000000" stroke-width="1" x1="589" x2="589" y1="463" y2="468"/>
<line fill="#000000" stroke="#000000" stroke-width="1" x1="589" x2="589" y1="473" y2="478"/>
<line fill="#000000" stroke="#000000" stroke-width="1" x1="589" x2="589" y1="483" y2="488"/>
<line fill="#000000" stroke="#000000" stroke-width="1" x1="589" x2="589" y1="493" y2="498"/>
<line fill="#000000" stroke="#000000" stroke-width="1" x1="589" x2="589" y1="503" y2="508"/>
<line fill="#000000" stroke="#000000" stroke-width="1" x1="589" x2="589" y1="513" y2="518"/>
<line fill="#000000" stroke="#000000" stroke-width="1" x1="589" x2="589" y1="523" y2="528"/>
<line fill="#000000" stroke="#000000" stroke-width="1" x1="589" x2="589" y1="533" y2="538"/>
<line fill="#000000" stroke="#000000" stroke-width="1" x1="589" x2="589" y1="543" y2="548"/>
<line fill="#000000" stroke="#000000" stroke-width="1" x1="589" x2="589" y1="553" y2="558"/>
<rect fill="#ffffff" height="90" stroke="#ffffff" stroke-width="1" width="20" x="579" y="158"/>
<rect fill="none" height="90" stroke="#000000" stroke-width="1" width="20" x="579" y="158"/>
<rect fill="#ffffff" height="50" stroke="#ffffff" stroke-width="1" width="150" x="514" y="14"/>
<rect fill="none" height="50" stroke="#000000" stroke-width="1" width="150" x="514" y="14"/>
<text font-family="Dialog" font-size="12" x="525" y="28">
:FragmentManagerImpl</text>
<polyline fill="none" points="351,158 579,158" stroke="#000000" stroke-width="1"/>
<polygon fill="#000000" points="579,158 567,165 567,151" stroke="#000000" stroke-width="1"/>
<polygon fill="none" points="579,158 567,165 567,151" stroke="#000000" stroke-width="1"/>
<text font-family="Dialog" font-size="12" x="418" y="150">
dispatchResume()</text>
<polyline fill="none" points="579,248 351,248" stroke="#000000" stroke-width="1"/>
<line fill="#000000" stroke="#000000" stroke-width="1" x1="363" x2="351" y1="241" y2="248"/>
<line fill="#000000" stroke="#000000" stroke-width="1" x1="363" x2="351" y1="255" y2="248"/>
<line fill="#000000" stroke="#000000" stroke-width="1" x1="829" x2="829" y1="63" y2="68"/>
<line fill="#000000" stroke="#000000" stroke-width="1" x1="829" x2="829" y1="73" y2="78"/>
<line fill="#000000" stroke="#000000" stroke-width="1" x1="829" x2="829" y1="83" y2="88"/>
<line fill="#000000" stroke="#000000" stroke-width="1" x1="829" x2="829" y1="93" y2="98"/>
<line fill="#000000" stroke="#000000" stroke-width="1" x1="829" x2="829" y1="103" y2="108"/>
<line fill="#000000" stroke="#000000" stroke-width="1" x1="829" x2="829" y1="113" y2="118"/>
<line fill="#000000" stroke="#000000" stroke-width="1" x1="829" x2="829" y1="123" y2="128"/>
<line fill="#000000" stroke="#000000" stroke-width="1" x1="829" x2="829" y1="133" y2="138"/>
<line fill="#000000" stroke="#000000" stroke-width="1" x1="829" x2="829" y1="143" y2="148"/>
<line fill="#000000" stroke="#000000" stroke-width="1" x1="829" x2="829" y1="153" y2="158"/>
<line fill="#000000" stroke="#000000" stroke-width="1" x1="829" x2="829" y1="163" y2="168"/>
<line fill="#000000" stroke="#000000" stroke-width="1" x1="829" x2="829" y1="173" y2="178"/>
<line fill="#000000" stroke="#000000" stroke-width="1" x1="829" x2="829" y1="183" y2="188"/>
<line fill="#000000" stroke="#000000" stroke-width="1" x1="829" x2="829" y1="193" y2="198"/>
<line fill="#000000" stroke="#000000" stroke-width="1" x1="829" x2="829" y1="203" y2="208"/>
<line fill="#000000" stroke="#000000" stroke-width="1" x1="829" x2="829" y1="213" y2="218"/>
<line fill="#000000" stroke="#000000" stroke-width="1" x1="829" x2="829" y1="223" y2="228"/>
<line fill="#000000" stroke="#000000" stroke-width="1" x1="829" x2="829" y1="233" y2="238"/>
<line fill="#000000" stroke="#000000" stroke-width="1" x1="829" x2="829" y1="243" y2="248"/>
<line fill="#000000" stroke="#000000" stroke-width="1" x1="829" x2="829" y1="253" y2="258"/>
<line fill="#000000" stroke="#000000" stroke-width="1" x1="829" x2="829" y1="263" y2="268"/>
<line fill="#000000" stroke="#000000" stroke-width="1" x1="829" x2="829" y1="273" y2="278"/>
<line fill="#000000" stroke="#000000" stroke-width="1" x1="829" x2="829" y1="283" y2="288"/>
<line fill="#000000" stroke="#000000" stroke-width="1" x1="829" x2="829" y1="293" y2="298"/>
<line fill="#000000" stroke="#000000" stroke-width="1" x1="829" x2="829" y1="303" y2="308"/>
<line fill="#000000" stroke="#000000" stroke-width="1" x1="829" x2="829" y1="313" y2="318"/>
<line fill="#000000" stroke="#000000" stroke-width="1" x1="829" x2="829" y1="323" y2="328"/>
<line fill="#000000" stroke="#000000" stroke-width="1" x1="829" x2="829" y1="333" y2="338"/>
<line fill="#000000" stroke="#000000" stroke-width="1" x1="829" x2="829" y1="343" y2="348"/>
<line fill="#000000" stroke="#000000" stroke-width="1" x1="829" x2="829" y1="353" y2="358"/>
<line fill="#000000" stroke="#000000" stroke-width="1" x1="829" x2="829" y1="363" y2="368"/>
<line fill="#000000" stroke="#000000" stroke-width="1" x1="829" x2="829" y1="373" y2="378"/>
<line fill="#000000" stroke="#000000" stroke-width="1" x1="829" x2="829" y1="383" y2="388"/>
<line fill="#000000" stroke="#000000" stroke-width="1" x1="829" x2="829" y1="393" y2="398"/>
<line fill="#000000" stroke="#000000" stroke-width="1" x1="829" x2="829" y1="403" y2="408"/>
<line fill="#000000" stroke="#000000" stroke-width="1" x1="829" x2="829" y1="413" y2="418"/>
<line fill="#000000" stroke="#000000" stroke-width="1" x1="829" x2="829" y1="423" y2="428"/>
<line fill="#000000" stroke="#000000" stroke-width="1" x1="829" x2="829" y1="433" y2="438"/>
<line fill="#000000" stroke="#000000" stroke-width="1" x1="829" x2="829" y1="443" y2="448"/>
<line fill="#000000" stroke="#000000" stroke-width="1" x1="829" x2="829" y1="453" y2="458"/>
<line fill="#000000" stroke="#000000" stroke-width="1" x1="829" x2="829" y1="463" y2="468"/>
<line fill="#000000" stroke="#000000" stroke-width="1" x1="829" x2="829" y1="473" y2="478"/>
<line fill="#000000" stroke="#000000" stroke-width="1" x1="829" x2="829" y1="483" y2="488"/>
<line fill="#000000" stroke="#000000" stroke-width="1" x1="829" x2="829" y1="493" y2="498"/>
<line fill="#000000" stroke="#000000" stroke-width="1" x1="829" x2="829" y1="503" y2="508"/>
<line fill="#000000" stroke="#000000" stroke-width="1" x1="829" x2="829" y1="513" y2="518"/>
<line fill="#000000" stroke="#000000" stroke-width="1" x1="829" x2="829" y1="523" y2="528"/>
<line fill="#000000" stroke="#000000" stroke-width="1" x1="829" x2="829" y1="533" y2="538"/>
<line fill="#000000" stroke="#000000" stroke-width="1" x1="829" x2="829" y1="543" y2="548"/>
<line fill="#000000" stroke="#000000" stroke-width="1" x1="829" x2="829" y1="553" y2="558"/>
<rect fill="#ffffff" height="50" stroke="#ffffff" stroke-width="1" width="20" x="819" y="178"/>
<rect fill="none" height="50" stroke="#000000" stroke-width="1" width="20" x="819" y="178"/>
<rect fill="#ffffff" height="50" stroke="#ffffff" stroke-width="1" width="150" x="754" y="14"/>
<rect fill="none" height="50" stroke="#000000" stroke-width="1" width="150" x="754" y="14"/>
<text font-family="Dialog" font-size="12" x="801" y="28">
:Fragment</text>
<polyline fill="none" points="599,178 819,178" stroke="#000000" stroke-width="1"/>
<polygon fill="#000000" points="819,178 807,185 807,171" stroke="#000000" stroke-width="1"/>
<polygon fill="none" points="819,178 807,185 807,171" stroke="#000000" stroke-width="1"/>
<text font-family="Dialog" font-size="12" x="663" y="170">
performResume()</text>
<polyline fill="none" points="819,228 599,228" stroke="#000000" stroke-width="1"/>
<line fill="#000000" stroke="#000000" stroke-width="1" x1="611" x2="599" y1="221" y2="228"/>
<line fill="#000000" stroke="#000000" stroke-width="1" x1="611" x2="599" y1="235" y2="228"/>
</svg>
